<?xml version="1.0" encoding="UTF-8"?>
<svg id="logo" xmlns="http://www.w3.org/2000/svg" version="1.1" viewBox="0 0 252.1 308.6">
  <defs>
    <style>
      .st0 { fill: #e5f7fd; }
    </style>
  </defs>
  <path id="logo1" class="st0" d="M97.7,0H0v308.6h97.7c85.2,0,154.3-69.1,154.3-154.3h0C252.1,69.1,183,0,97.7,0ZM191.6,188c-9.2,29.1-33.1,57-67.9,65.7,12.1-8.5,13.5-20.6,5.7-29.9-13-15.4-70.8-2.3-86.8,1.4,10-25.6,88.2-126.6-.7-174.3,48.4,0,62.6-1.4,85.4,3.6,27.1,5.9,38.4,32.7,28.5,54.8-13.1,28.9-51.9,65.5-51.9,65.5,31.6-15.6,49.8-22.5,64.4-21.6,14.2.8,30.1,13.8,23.4,34.9Z"/>
</svg>